<?xml version="1.0" encoding="UTF-8" standalone="no"?>
<svg
   viewBox="0 0 815.99998 1056"
   width="8.5in"
   height="11in"
   version="1.1"
   id="svg26"
   sodipodi:docname="L_truss_endplate.svg"
   inkscape:version="1.1.2 (0a00cf5339, 2022-02-04)"
   xmlns:inkscape="http://www.inkscape.org/namespaces/inkscape"
   xmlns:sodipodi="http://sodipodi.sourceforge.net/DTD/sodipodi-0.dtd"
   xmlns:xlink="http://www.w3.org/1999/xlink"
   xmlns="http://www.w3.org/2000/svg"
   xmlns:svg="http://www.w3.org/2000/svg">
  <sodipodi:namedview
     id="namedview28"
     pagecolor="#ffffff"
     bordercolor="#666666"
     borderopacity="1.0"
     inkscape:pageshadow="2"
     inkscape:pageopacity="0.0"
     inkscape:pagecheckerboard="0"
     showgrid="false"
     inkscape:snap-global="true"
     inkscape:zoom="0.67108094"
     inkscape:cx="355.39677"
     inkscape:cy="532.72262"
     inkscape:window-width="1850"
     inkscape:window-height="1016"
     inkscape:window-x="70"
     inkscape:window-y="27"
     inkscape:window-maximized="1"
     inkscape:current-layer="g24"
     units="in"
     inkscape:document-units="in" />
  <desc
     id="desc2">L_truss_endplate.dxf - scale = 1.0, origin = (0.0, 0.0), method = manual</desc>
  <defs
     id="defs14">
    <marker
       id="DistanceX"
       orient="auto"
       refX="0"
       refY="0"
       style="overflow:visible">
      <path
         d="M 3,-3 -3,3 M 0,-5 V 5"
         style="stroke:#000000;stroke-width:0.5"
         id="path4" />
    </marker>
    <pattern
       id="Hatch"
       patternUnits="userSpaceOnUse"
       width="8"
       height="8"
       x="0"
       y="0">
      <path
         d="M8 4 l-4,4"
         stroke="#000000"
         stroke-width="0.25"
         linecap="square"
         id="path7" />
      <path
         d="M6 2 l-4,4"
         stroke="#000000"
         stroke-width="0.25"
         linecap="square"
         id="path9" />
      <path
         d="M4 0 l-4,4"
         stroke="#000000"
         stroke-width="0.25"
         linecap="square"
         id="path11" />
    </pattern>
  </defs>
  <g
     inkscape:groupmode="layer"
     inkscape:label="0"
     id="g24">
    <g
       id="g855"
       transform="translate(-53.875053,-491.97543)">
      <path
         d="M 175.66052,571.4188 V 684.80462 H 515.81801 V 571.4188 Z"
         style="fill:none;stroke:#000000"
         id="path16" />
      <path
         d="m 230.44213,609.70806 -0.0646,0.49058 -0.10696,0.48265 -0.14891,0.47167 -0.18898,0.45695 -0.22866,0.43881 -0.26569,0.41726 -0.30086,0.39231 -0.33411,0.36473 -0.36473,0.33411 -0.39231,0.30085 -0.41726,0.2657 -0.43881,0.22866 -0.45694,0.18898 -0.47169,0.14891 -0.48264,0.10696 -0.49058,0.0646 -0.49399,0.0215 -0.49398,-0.0215 -0.49059,-0.0646 -0.48264,-0.10696 -0.47169,-0.14891 -0.45694,-0.18898 -0.4388,-0.22866 -0.41726,-0.2657 -0.39232,-0.30085 -0.36472,-0.33411 -0.33411,-0.36473 -0.30085,-0.39231 -0.2657,-0.41726 -0.22867,-0.43881 -0.18897,-0.45695 -0.14892,-0.47167 -0.10696,-0.48265 -0.0646,-0.49058 -0.0215,-0.49398 0.0215,-0.49399 0.0646,-0.49058 0.10696,-0.48265 0.14892,-0.47169 0.18897,-0.45695 0.22867,-0.43879 0.2657,-0.41726 0.30085,-0.39233 0.33411,-0.36471 0.36472,-0.33411 0.39232,-0.30085 0.41726,-0.2657 0.4388,-0.22866 0.45694,-0.18898 0.47169,-0.14891 0.48264,-0.10696 0.49059,-0.0646 0.49398,-0.0215 0.49399,0.0215 0.49058,0.0646 0.48264,0.10696 0.47169,0.14891 0.45694,0.18898 0.43881,0.22866 0.41726,0.2657 0.39231,0.30085 0.36473,0.33411 0.33411,0.36471 0.30086,0.39233 0.26569,0.41726 0.22866,0.43879 0.18898,0.45695 0.14891,0.47169 0.10696,0.48265 0.0646,0.49058 0.0215,0.49399 z"
         style="fill:none;stroke:#000000"
         id="path18" />
      <path
         d="m 351.38697,609.70806 -0.0646,0.49058 -0.10704,0.48265 -0.14872,0.47167 -0.18928,0.45695 -0.22836,0.43881 -0.26574,0.41726 -0.30107,0.39231 -0.33415,0.36473 -0.36465,0.33411 -0.39237,0.30085 -0.41713,0.2657 -0.4387,0.22866 -0.45694,0.18898 -0.47168,0.14891 -0.48287,0.10696 -0.49034,0.0646 -0.49412,0.0215 -0.49411,-0.0215 -0.49035,-0.0646 -0.48286,-0.10696 -0.47169,-0.14891 -0.45693,-0.18898 -0.4387,-0.22866 -0.41713,-0.2657 -0.39238,-0.30085 -0.36464,-0.33411 -0.33415,-0.36473 -0.30108,-0.39231 -0.26573,-0.41726 -0.22836,-0.43881 -0.18928,-0.45695 -0.14873,-0.47167 -0.10703,-0.48265 -0.0646,-0.49058 -0.0216,-0.49398 0.0216,-0.49399 0.0646,-0.49058 0.10703,-0.48265 0.14873,-0.47169 0.18928,-0.45695 0.22836,-0.43879 0.26573,-0.41726 0.30108,-0.39233 0.33415,-0.36471 0.36464,-0.33411 0.39238,-0.30085 0.41713,-0.2657 0.4387,-0.22866 0.45693,-0.18898 0.47169,-0.14891 0.48286,-0.10696 0.49035,-0.0646 0.49411,-0.0215 0.49412,0.0215 0.49034,0.0646 0.48287,0.10696 0.47168,0.14891 0.45694,0.18898 0.4387,0.22866 0.41713,0.2657 0.39237,0.30085 0.36465,0.33411 0.33415,0.36471 0.30107,0.39233 0.26574,0.41726 0.22836,0.43879 0.18928,0.45695 0.14872,0.47169 0.10704,0.48265 0.0646,0.49058 0.0216,0.49399 z"
         style="fill:none;stroke:#000000"
         id="path20" />
      <path
         d="m 472.3319,609.70806 -0.0646,0.49058 -0.10695,0.48265 -0.14891,0.47167 -0.18898,0.45695 -0.22866,0.43881 -0.26571,0.41726 -0.30084,0.39231 -0.33412,0.36473 -0.36472,0.33411 -0.39232,0.30085 -0.41726,0.2657 -0.4388,0.22866 -0.45695,0.18898 -0.47168,0.14891 -0.48265,0.10696 -0.49058,0.0646 -0.49398,0.0215 -0.49399,-0.0215 -0.49058,-0.0646 -0.48265,-0.10696 -0.47168,-0.14891 -0.45695,-0.18898 -0.4388,-0.22866 -0.41726,-0.2657 -0.39232,-0.30085 -0.36472,-0.33411 -0.33411,-0.36473 -0.30085,-0.39231 -0.2657,-0.41726 -0.22866,-0.43881 -0.18898,-0.45695 -0.14891,-0.47167 -0.10696,-0.48265 -0.0646,-0.49058 -0.0216,-0.49398 0.0216,-0.49399 0.0646,-0.49058 0.10696,-0.48265 0.14891,-0.47169 0.18898,-0.45695 0.22866,-0.43879 0.2657,-0.41726 0.30085,-0.39233 0.33411,-0.36471 0.36472,-0.33411 0.39232,-0.30085 0.41726,-0.2657 0.4388,-0.22866 0.45695,-0.18898 0.47168,-0.14891 0.48265,-0.10696 0.49058,-0.0646 0.49399,-0.0215 0.49398,0.0215 0.49058,0.0646 0.48265,0.10696 0.47168,0.14891 0.45695,0.18898 0.4388,0.22866 0.41726,0.2657 0.39232,0.30085 0.36472,0.33411 0.33412,0.36471 0.30084,0.39233 0.26571,0.41726 0.22866,0.43879 0.18898,0.45695 0.14891,0.47169 0.10695,0.48265 0.0646,0.49058 0.0215,0.49399 z"
         style="fill:none;stroke:#000000"
         id="path22" />
      <path
         style="fill:none;stroke:#000000;stroke-width:1px;stroke-linecap:butt;stroke-linejoin:miter;stroke-opacity:1"
         d="m 345.73922,605.49257 v 7.443"
         id="path894" />
      <path
         style="fill:none;stroke:#000000;stroke-width:1px;stroke-linecap:butt;stroke-linejoin:miter;stroke-opacity:1"
         d="m 341.86129,609.1547 7.75585,0.11876"
         id="path896" />
      <path
         style="fill:none;stroke:#000000;stroke-width:1px;stroke-linecap:butt;stroke-linejoin:miter;stroke-opacity:1"
         d="m 466.68413,605.49257 v 7.443"
         id="path978" />
      <path
         style="fill:none;stroke:#000000;stroke-width:1px;stroke-linecap:butt;stroke-linejoin:miter;stroke-opacity:1"
         d="m 462.80621,609.1547 7.75585,0.11876"
         id="path980" />
      <path
         style="fill:none;stroke:#000000;stroke-width:1px;stroke-linecap:butt;stroke-linejoin:miter;stroke-opacity:1"
         d="m 224.79441,605.49257 v 7.443"
         id="path982" />
      <path
         style="fill:none;stroke:#000000;stroke-width:1px;stroke-linecap:butt;stroke-linejoin:miter;stroke-opacity:1"
         d="m 220.91648,609.1547 7.75585,0.11876"
         id="path984" />
      <g
         id="g1218">
        <path
           style="fill:none;stroke:#000000;stroke-width:1px;stroke-linecap:butt;stroke-linejoin:miter;stroke-opacity:0.211981"
           d="m 408.15121,571.29037 48.41363,-29.88895 h 59.25317 v 30.01738"
           id="path1019" />
        <path
           style="fill:none;stroke:#000000;stroke-width:1px;stroke-linecap:butt;stroke-linejoin:miter;stroke-opacity:1"
           d="m 515.81801,571.4188 h 58.23379 v 56.86029 l -56.15623,52.39655"
           id="path1134"
           sodipodi:nodetypes="cccc" />
      </g>
      <use
         x="0"
         y="0"
         xlink:href="#g1218"
         id="use1220"
         transform="matrix(-1,0,0,1,691.47853,0)"
         width="100%"
         height="100%" />
      <path
         d="m 370.97661,611.42148 -0.28867,2.19219 -0.47832,2.15676 -0.66457,2.10769 -0.84581,2.04192 -1.02044,1.96085 -1.18748,1.86455 -1.34535,1.75307 -1.49317,1.62982 -1.62946,1.49299 -1.75334,1.34437 -1.86397,1.1873 -1.96037,1.02178 -2.04187,0.84447 -2.10773,0.66542 -2.15774,0.47796 -2.19112,0.28867 -2.20801,0.0961 -2.20796,-0.0961 -2.19117,-0.28867 -2.15769,-0.47796 -2.10778,-0.66542 -2.04182,-0.84447 -1.96037,-1.02178 -1.86397,-1.1873 -1.75338,-1.34437 -1.62942,-1.49299 -1.49317,-1.62982 -1.3454,-1.75307 -1.18743,-1.86455 -1.02044,-1.96085 -0.84581,-2.04192 -0.66462,-2.10769 -0.47827,-2.15676 -0.28867,-2.19219 -0.0965,-2.20738 0.0965,-2.20743 0.28867,-2.19219 0.47827,-2.15676 0.66462,-2.10777 0.84581,-2.04193 1.02044,-1.96076 1.18743,-1.86455 1.3454,-1.75315 1.49317,-1.62974 1.62942,-1.49299 1.75338,-1.34437 1.86397,-1.1873 1.96037,-1.02178 2.04182,-0.84447 2.10778,-0.66542 2.15769,-0.47796 2.19117,-0.28867 2.20796,-0.0961 2.20801,0.0961 2.19112,0.28867 2.15774,0.47796 2.10773,0.66542 2.04187,0.84447 1.96037,1.02178 1.86397,1.1873 1.75334,1.34437 1.62946,1.49299 1.49317,1.62974 1.34535,1.75315 1.18748,1.86455 1.02044,1.96076 0.84581,2.04193 0.66457,2.10777 0.47832,2.15676 0.28867,2.19219 0.0965,2.20743 z"
         style="fill:none;stroke:#000000;stroke-width:1;stroke-miterlimit:4;stroke-dasharray:none;stroke-opacity:0.387007"
         id="path1559" />
    </g>
    <use
       x="0"
       y="0"
       xlink:href="#g855"
       id="use857"
       transform="rotate(180,289.75784,297.84892)"
       width="100%"
       height="100%" />
    <use
       x="0"
       y="0"
       xlink:href="#g855"
       id="use859"
       transform="translate(-4.2127434,210.03947)"
       width="100%"
       height="100%" />
    <use
       x="0"
       y="0"
       xlink:href="#g855"
       id="use1555"
       transform="rotate(180,289.75784,412.81768)"
       width="100%"
       height="100%" />
    <use
       x="0"
       y="0"
       xlink:href="#g855"
       id="use1557"
       transform="translate(-4.2127434,439.97699)"
       width="100%"
       height="100%" />
    <path
       style="fill:none;stroke:#000000;stroke-width:1px;stroke-linecap:butt;stroke-linejoin:miter;stroke-opacity:1"
       d="m 631.04789,290.98145 -18.12353,114.26742 16.9579,106.9082"
       id="path1643"
       sodipodi:nodetypes="ccc"
       inkscape:transform-center-x="-10.334365"
       inkscape:transform-center-y="-2.6545118" />
    <text
       xml:space="preserve"
       style="font-style:normal;font-weight:normal;font-size:16px;line-height:1.25;font-family:sans-serif;fill:#000000;fill-opacity:1;stroke:none"
       x="625.10095"
       y="406.64047"
       id="text3703"><tspan
         sodipodi:role="line"
         id="tspan3701"
         x="625.10095"
         y="406.64047">Bend to 18 deg</tspan></text>
    <use
       x="0"
       y="0"
       xlink:href="#g855"
       id="use5715"
       transform="rotate(180,289.75784,528.10498)"
       width="100%"
       height="100%" />
    <use
       x="0"
       y="0"
       xlink:href="#g855"
       id="use5717"
       transform="translate(-4.2127434,670.5516)"
       width="100%"
       height="100%" />
  </g>
</svg>
